<?xml version="1.0" standalone="no"?>
<!DOCTYPE svg PUBLIC "-//W3C//DTD SVG 20010904//EN"
 "http://www.w3.org/TR/2001/REC-SVG-20010904/DTD/svg10.dtd">
<svg version="1.0" xmlns="http://www.w3.org/2000/svg"
 width="512.000000pt" height="512.000000pt" viewBox="0 0 512.000000 512.000000"
 preserveAspectRatio="xMidYMid meet">

<g transform="translate(0.000000,512.000000) scale(0.100000,-0.100000)"
fill="current" stroke="none">
<path d="M2720 4569 c-25 -11 -58 -33 -75 -49 -29 -28 -33 -28 -160 -32 -148
-4 -201 -21 -269 -86 -41 -39 -86 -122 -86 -159 l0 -23 -558 0 c-614 0 -613 0
-706 -61 -175 -116 -201 -376 -52 -524 40 -40 76 -62 173 -105 l123 -55 0 -77
0 -77 -448 -3 c-444 -3 -447 -3 -494 -26 -67 -33 -123 -94 -148 -158 -19 -53
-20 -74 -20 -708 0 -646 0 -654 21 -680 28 -36 80 -36 108 0 21 26 21 34 21
674 l0 647 23 34 c12 19 38 42 57 51 33 17 120 18 1398 18 1497 0 1407 4 1453
-61 l24 -34 0 -980 c0 -931 -1 -981 -18 -1007 -10 -15 -30 -35 -45 -45 -26
-17 -91 -18 -1402 -21 -1294 -2 -1377 -1 -1410 15 -19 10 -45 33 -57 52 -22
32 -23 43 -23 223 0 187 0 189 -25 213 -31 32 -69 32 -100 0 -25 -24 -25 -25
-25 -219 0 -239 10 -277 94 -353 47 -43 72 -56 153 -79 9 -2 13 -25 13 -66 0
-35 5 -80 10 -100 16 -57 69 -119 129 -150 l53 -28 1177 0 c1330 0 1216 -7
1298 83 49 53 73 122 73 209 0 53 2 58 23 58 38 0 121 45 156 85 69 79 75 106
79 343 l4 212 41 0 c23 1 102 5 176 10 l133 9 69 -55 c50 -41 76 -71 96 -112
19 -38 42 -66 71 -87 41 -28 50 -30 164 -35 l121 -5 22 -40 c40 -71 84 -113
152 -147 l68 -33 322 0 c309 0 323 1 349 21 67 50 69 56 72 279 4 237 0 250
-79 317 l-49 41 0 74 0 74 54 58 c30 31 60 69 65 84 16 41 14 201 -3 240 -8
18 -37 54 -65 82 l-51 49 0 72 0 73 51 48 c76 71 79 82 79 305 0 217 -7 244
-69 285 -31 21 -46 23 -152 23 -115 0 -118 -1 -138 -26 -34 -43 -24 -86 26
-112 12 -7 58 -12 102 -12 l81 0 0 -162 0 -161 -54 -51 c-63 -59 -76 -94 -76
-206 0 -108 13 -145 76 -210 54 -56 54 -57 54 -120 0 -62 -1 -63 -55 -121 -62
-68 -75 -103 -75 -209 0 -111 13 -147 76 -208 l54 -52 0 -165 0 -165 -262 0
c-162 0 -278 4 -303 11 -57 16 -95 46 -116 93 -18 39 -19 82 -19 815 0 766 0
775 21 818 28 58 87 93 158 93 56 0 105 19 115 45 11 31 6 61 -14 83 -18 19
-32 22 -95 22 -132 0 -236 -59 -291 -164 l-29 -56 -106 0 c-72 0 -118 -5 -142
-15 -48 -20 -105 -80 -118 -124 -8 -27 -30 -51 -84 -94 l-73 -57 -175 0 -175
0 -4 228 c-3 211 -5 231 -26 277 -28 61 -81 117 -133 140 l-39 18 0 267 c0
202 3 270 13 284 12 17 21 14 140 -33 l126 -51 748 2 748 3 60 28 c79 37 156
114 192 191 24 52 28 74 28 151 0 77 -4 99 -28 151 -36 77 -113 154 -192 191
-55 25 -72 28 -197 31 -136 4 -137 4 -163 -22 -32 -32 -32 -70 0 -101 23 -23
31 -25 132 -25 140 0 177 -11 234 -69 47 -46 69 -96 69 -156 0 -90 -74 -191
-155 -214 -28 -7 -259 -11 -750 -10 l-710 1 -125 51 -125 52 0 119 0 120 125
52 125 53 468 0 468 1 24 25 c14 13 25 36 25 50 0 14 -11 37 -25 50 l-24 25
-477 0 -476 0 -124 -50 c-68 -27 -126 -50 -129 -50 -2 0 -13 17 -24 39 -58
112 -220 165 -341 110z m177 -146 c46 -31 53 -65 53 -278 0 -213 -7 -247 -53
-278 -33 -21 -105 -22 -135 -1 -47 33 -52 59 -52 279 0 220 5 246 52 279 30
21 102 20 135 -1z m-337 -279 l0 -196 -94 4 c-101 3 -127 14 -168 69 -41 55
-35 207 10 260 37 45 75 58 170 59 l82 0 0 -196z m-430 -96 c0 -38 45 -121 86
-160 67 -64 121 -82 262 -86 l122 -4 0 -239 0 -239 -670 0 -670 0 0 110 c0
106 -1 111 -27 139 -17 18 -74 49 -147 81 -144 62 -170 79 -198 133 -54 106 1
244 111 277 14 5 275 9 579 9 l552 1 0 -22z m780 -538 l0 -190 -80 0 -80 0 0
190 0 190 80 0 80 0 0 -190z m1210 -1420 l0 -690 -89 0 c-68 0 -93 4 -105 16
-14 14 -16 88 -16 671 0 597 2 658 17 675 13 15 32 18 105 18 l88 0 0 -690z
m-364 -467 c-2 -3 -26 12 -52 33 l-49 36 -80 -6 c-44 -3 -133 -8 -197 -12
l-118 -7 0 412 0 411 196 0 c204 0 213 2 269 48 l30 25 3 -468 c1 -258 0 -470
-2 -472z m-908 -819 c-4 -59 -8 -70 -35 -95 -20 -17 -48 -30 -75 -34 -24 -3
-540 -5 -1148 -3 -1036 3 -1107 4 -1131 21 -35 24 -49 58 -49 122 l0 55 1221
0 1221 0 -4 -66z"/>
<path d="M455 2981 c-47 -22 -89 -64 -104 -104 -7 -18 -11 -167 -11 -419 l0
-391 25 -43 c15 -26 43 -54 69 -69 l43 -25 739 0 739 0 40 23 c44 25 80 72 95
126 12 45 13 711 1 764 -14 58 -51 105 -105 132 l-50 25 -720 0 c-680 0 -723
-1 -761 -19z m1479 -153 c14 -19 16 -71 16 -366 0 -217 -4 -350 -10 -363 -10
-19 -29 -19 -719 -19 -647 0 -710 1 -722 17 -20 24 -20 712 0 736 12 16 75 17
717 17 l703 0 15 -22z"/>
<path d="M2325 2780 c-25 -28 -23 -76 4 -103 21 -22 27 -22 292 -22 l271 0 19
24 c25 30 24 76 -1 101 -19 19 -33 20 -293 20 -262 0 -275 -1 -292 -20z"/>
<path d="M2325 2400 c-25 -28 -23 -76 4 -103 21 -22 27 -22 292 -22 l271 0 19
24 c25 30 24 76 -1 101 -19 19 -33 20 -293 20 -262 0 -275 -1 -292 -20z"/>
<path d="M568 1699 c-49 -14 -117 -74 -139 -123 -36 -80 -19 -188 39 -249 79
-83 207 -95 300 -27 51 36 92 118 92 179 0 51 -29 123 -63 159 -51 55 -153 82
-229 61z m125 -170 c34 -41 16 -98 -36 -118 -53 -20 -97 16 -97 78 0 64 90 92
133 40z"/>
<path d="M1168 1696 c-52 -19 -83 -40 -111 -78 -99 -134 -29 -322 133 -357
143 -31 270 74 270 221 -1 69 -27 125 -79 170 -63 54 -141 70 -213 44z m117
-161 c64 -63 -5 -161 -85 -120 -52 27 -52 106 0 132 37 19 58 16 85 -12z"/>
<path d="M1701 1550 c-52 -22 -65 -70 -30 -114 19 -25 25 -26 110 -26 76 0 92
3 109 20 27 27 26 81 -1 106 -24 22 -147 31 -188 14z"/>
<path d="M2130 1553 c-34 -13 -50 -37 -50 -74 0 -70 -7 -69 441 -69 384 0 396
1 414 20 25 28 23 76 -4 103 -21 22 -25 22 -404 24 -210 1 -389 -1 -397 -4z"/>
</g>
</svg>
