<?xml version="1.0" standalone="no"?>
<!DOCTYPE svg PUBLIC "-//W3C//DTD SVG 20010904//EN"
 "http://www.w3.org/TR/2001/REC-SVG-20010904/DTD/svg10.dtd">
<svg version="1.0" xmlns="http://www.w3.org/2000/svg"
 width="512.000000pt" height="512.000000pt" viewBox="0 0 512.000000 512.000000"
 preserveAspectRatio="xMidYMid meet">

<g transform="translate(0.000000,512.000000) scale(0.100000,-0.100000)"
fill="current" stroke="none">
<path d="M325 4551 c-90 -22 -172 -90 -215 -176 l-25 -50 0 -1731 0 -1730 37
-76 c45 -91 103 -147 196 -191 l67 -32 2176 0 2175 0 76 37 c91 45 147 103
191 196 l32 67 0 1330 0 1330 -34 63 c-38 69 -80 110 -151 144 -36 17 -68 22
-167 26 l-121 4 -7 47 c-9 61 -60 156 -104 192 -19 16 -56 39 -81 51 l-45 23
-1061 3 -1061 2 -126 189 c-136 203 -172 240 -262 272 -52 18 -87 19 -757 18
-387 -1 -716 -4 -733 -8z m1472 -176 c15 -12 90 -113 165 -224 75 -112 142
-209 148 -215 8 -8 327 -12 1100 -16 1080 -5 1089 -5 1116 -26 39 -28 63 -63
70 -101 l6 -33 -1723 -2 -1724 -3 -50 -25 c-64 -31 -124 -91 -155 -155 l-25
-50 -5 -1315 c-6 -1485 2 -1351 -86 -1429 -66 -58 -142 -74 -228 -49 -55 16
-138 99 -154 154 -16 55 -18 3368 -1 3411 14 37 47 72 84 89 24 11 162 13 732
11 690 -2 702 -2 730 -22z m-770 -781 c-3 -3 -12 -4 -19 -1 -8 3 -5 6 6 6 11
1 17 -2 13 -5z m3730 0 c-3 -3 -12 -4 -19 -1 -8 3 -5 6 6 6 11 1 17 -2 13 -5z
m-3797 -17 c0 -2 -15 -16 -32 -33 l-33 -29 29 33 c28 30 36 37 36 29z m3876
-29 l29 -33 -32 29 c-31 28 -38 36 -30 36 2 0 16 -15 33 -32z m-3949 -90 c-3
-8 -6 -5 -6 6 -1 11 2 17 5 13 3 -3 4 -12 1 -19z m3990 0 c-3 -8 -6 -5 -6 6
-1 11 2 17 5 13 3 -3 4 -12 1 -19z m-2104 -185 c-7 -2 -19 -2 -25 0 -7 3 -2 5
12 5 14 0 19 -2 13 -5z m240 0 c-7 -2 -19 -2 -25 0 -7 3 -2 5 12 5 14 0 19 -2
13 -5z m-316 -9 c-3 -3 -12 -4 -19 -1 -8 3 -5 6 6 6 11 1 17 -2 13 -5z m418
-174 c183 -49 305 -120 440 -255 136 -137 206 -259 256 -445 30 -110 33 -337
6 -444 -47 -186 -125 -324 -262 -461 -179 -178 -373 -267 -620 -281 -404 -24
-786 216 -943 591 -50 122 -67 212 -66 365 0 160 13 229 65 359 89 223 289
428 506 520 148 63 249 81 418 76 81 -2 146 -11 200 -25z m-935 -53 c0 -2 -10
-12 -22 -23 l-23 -19 19 23 c18 21 26 27 26 19z m1431 -24 c13 -16 12 -17 -3
-4 -17 13 -22 21 -14 21 2 0 10 -8 17 -17z m134 -133 c10 -11 16 -20 13 -20
-3 0 -13 9 -23 20 -10 11 -16 20 -13 20 3 0 13 -9 23 -20z m-1715 6 c0 -2 -8
-10 -17 -17 -16 -13 -17 -12 -4 4 13 16 21 21 21 13z m-253 -538 c-3 -8 -6 -5
-6 6 -1 11 2 17 5 13 3 -3 4 -12 1 -19z m-10 -70 c-3 -8 -6 -5 -6 6 -1 11 2
17 5 13 3 -3 4 -12 1 -19z m2230 -10 c-3 -7 -5 -2 -5 12 0 14 2 19 5 13 2 -7
2 -19 0 -25z m0 -240 c-3 -7 -5 -2 -5 12 0 14 2 19 5 13 2 -7 2 -19 0 -25z
m-2230 0 c-3 -8 -6 -5 -6 6 -1 11 2 17 5 13 3 -3 4 -12 1 -19z m2220 -70 c-3
-8 -6 -5 -6 6 -1 11 2 17 5 13 3 -3 4 -12 1 -19z m-1962 -518 c10 -11 16 -20
13 -20 -3 0 -13 9 -23 20 -10 11 -16 20 -13 20 3 0 13 -9 23 -20z m1735 17 c0
-2 -10 -12 -22 -23 l-23 -19 19 23 c18 21 26 27 26 19z m-1595 -157 c10 -11
16 -20 13 -20 -3 0 -13 9 -23 20 -10 11 -16 20 -13 20 3 0 13 -9 23 -20z
m1455 17 c0 -2 -10 -12 -22 -23 l-23 -19 19 23 c18 21 26 27 26 19z m-923
-263 c-3 -3 -12 -4 -19 -1 -8 3 -5 6 6 6 11 1 17 -2 13 -5z m390 0 c-3 -3 -12
-4 -19 -1 -8 3 -5 6 6 6 11 1 17 -2 13 -5z m-314 -11 c-7 -2 -19 -2 -25 0 -7
3 -2 5 12 5 14 0 19 -2 13 -5z m244 1 c-3 -3 -12 -4 -19 -1 -8 3 -5 6 6 6 11
1 17 -2 13 -5z m1860 -126 c-3 -7 -5 -2 -5 12 0 14 2 19 5 13 2 -7 2 -19 0
-25z m-190 -194 c-3 -3 -12 -4 -19 -1 -8 3 -5 6 6 6 11 1 17 -2 13 -5z"/>
<path d="M2545 2695 l-25 -24 0 -511 0 -511 25 -24 c14 -15 36 -25 52 -25 19
0 169 85 448 253 343 206 422 257 429 280 22 62 19 64 -429 334 -275 165 -430
252 -448 253 -17 0 -38 -10 -52 -25z m694 -535 c0 -3 -125 -80 -279 -172
l-280 -167 0 339 0 339 280 -167 c154 -92 279 -169 279 -172z"/>
</g>
</svg>
