<?xml version="1.0" standalone="no"?>
<!DOCTYPE svg PUBLIC "-//W3C//DTD SVG 20010904//EN"
 "http://www.w3.org/TR/2001/REC-SVG-20010904/DTD/svg10.dtd">
<svg version="1.0" xmlns="http://www.w3.org/2000/svg"
 width="50.000000pt" height="50.000000pt" viewBox="0 0 50.000000 50.000000"
 preserveAspectRatio="xMidYMid meet">

<g transform="translate(0.000000,50.000000) scale(0.100000,-0.100000)"
fill="current" stroke="none">
<path d="M345 441 l90 -6 6 -90 5 -90 2 98 2 97 -97 -2 -98 -2 90 -5z"/>
<path d="M310 313 l-115 -118 118 115 c109 107 122 120 114 120 -1 0 -54 -53
-117 -117z"/>
<path d="M50 215 l0 -165 165 0 165 0 -2 113 -2 112 -3 -107 -4 -108 -154 0
-155 0 0 155 0 154 108 4 107 3 -112 2 -113 2 0 -165z"/>
</g>
</svg>
