<?xml version="1.0" standalone="no"?>
<!DOCTYPE svg PUBLIC "-//W3C//DTD SVG 20010904//EN"
 "http://www.w3.org/TR/2001/REC-SVG-20010904/DTD/svg10.dtd">
<svg version="1.0" xmlns="http://www.w3.org/2000/svg"
 width="512.000000pt" height="512.000000pt" viewBox="0 0 512.000000 512.000000"
 preserveAspectRatio="xMidYMid meet">

<g transform="translate(0.000000,512.000000) scale(0.100000,-0.100000)"
fill="current" stroke="none">
<path d="M1780 5105 c-830 -105 -1514 -713 -1720 -1529 -251 -992 307 -2033
1279 -2386 669 -244 1442 -108 1977 347 28 23 55 43 60 43 5 0 362 -353 794
-784 684 -684 790 -785 821 -791 74 -14 138 50 124 124 -6 31 -107 137 -791
821 -431 432 -784 789 -784 794 0 5 20 32 43 60 108 127 220 305 289 461 346
776 180 1666 -419 2262 -306 304 -682 496 -1113 568 -136 23 -418 28 -560 10z
m515 -221 c656 -97 1203 -545 1436 -1177 71 -193 103 -381 103 -612 1 -233
-30 -414 -108 -628 -176 -487 -586 -897 -1073 -1073 -214 -78 -395 -109 -628
-108 -290 0 -511 49 -775 171 -296 137 -588 398 -759 676 -185 303 -272 608
-272 957 -1 356 86 663 272 963 70 112 130 188 239 301 407 421 982 616 1565
530z"/>
</g>
</svg>
