<?xml version="1.0" standalone="no"?>
<!DOCTYPE svg PUBLIC "-//W3C//DTD SVG 20010904//EN"
 "http://www.w3.org/TR/2001/REC-SVG-20010904/DTD/svg10.dtd">
<svg version="1.0" xmlns="http://www.w3.org/2000/svg"
 width="512.000000pt" height="512.000000pt" viewBox="0 0 512.000000 512.000000"
 preserveAspectRatio="xMidYMid meet">

<g transform="translate(0.000000,512.000000) scale(0.100000,-0.100000)"
fill="current" stroke="none">
<path d="M190 5111 c-69 -22 -130 -73 -166 -141 -18 -34 -19 -102 -19 -1950
l0 -1915 29 -58 c36 -71 99 -130 174 -165 53 -24 69 -27 225 -30 l167 -4 0
-327 0 -327 26 -52 c29 -58 82 -105 144 -127 63 -22 3516 -23 3579 0 59 20
108 61 139 114 l27 46 3 336 3 337 167 4 c155 3 171 6 224 30 75 35 138 94
174 165 l29 58 0 1665 0 1665 -33 67 c-36 73 -86 123 -161 160 l-46 23 -1557
5 -1556 5 -25 23 c-21 20 -25 34 -29 115 -3 51 -12 108 -20 128 -21 49 -74
106 -122 132 -41 22 -43 22 -696 24 -360 1 -666 -2 -680 -6z m1316 -184 c25
-22 27 -31 33 -128 4 -57 13 -115 21 -129 28 -53 62 -88 112 -116 l53 -29
1555 -5 c1536 -5 1555 -5 1589 -25 19 -11 45 -40 58 -64 22 -43 23 -52 23
-297 l0 -252 -52 20 c-37 14 -88 22 -169 25 l-117 6 -4 116 c-5 131 -19 169
-85 233 -75 73 79 68 -1961 68 -1377 0 -1844 -3 -1874 -12 -50 -15 -123 -79
-150 -132 -17 -33 -22 -64 -26 -157 l-4 -116 -117 -6 c-81 -3 -132 -11 -168
-25 l-53 -20 0 505 0 505 29 29 29 29 626 0 625 0 27 -23z m2901 -771 c27 -23
28 -29 31 -125 l4 -101 -1882 0 -1882 0 4 101 c3 96 4 102 31 125 l28 24 1819
0 1819 0 28 -24z m472 -435 c18 -13 42 -42 52 -65 18 -39 19 -93 19 -1266 0
-1171 -1 -1227 -19 -1266 -39 -85 -95 -106 -278 -102 l-128 3 -5 850 -5 850
-28 47 c-31 53 -79 94 -134 114 -56 20 -3530 20 -3586 0 -55 -20 -103 -61
-134 -114 l-28 -47 -5 -850 -5 -850 -128 -3 c-183 -4 -239 17 -278 102 -18 39
-19 95 -19 1263 0 1372 -5 1277 73 1334 l40 29 2281 -2 2281 -3 34 -24z
m-3429 -2157 l0 -1166 29 -29 c18 -17 40 -29 56 -29 16 0 38 12 56 29 l29 29
0 1166 0 1166 940 0 940 0 0 -1166 0 -1166 29 -29 c18 -17 40 -29 56 -29 16 0
38 12 56 29 l29 29 0 1166 0 1166 315 0 316 0 24 -25 25 -24 0 -1228 c-1 -950
-3 -1232 -13 -1244 -7 -9 -22 -21 -34 -27 -31 -17 -3455 -17 -3486 0 -12 6
-27 18 -34 27 -10 12 -12 294 -13 1244 l0 1228 25 24 24 25 316 0 315 0 0
-1166z"/>
<path d="M985 2548 c-52 -30 -61 -94 -19 -133 25 -23 34 -25 135 -25 118 0
151 9 168 47 18 39 13 63 -18 94 -29 29 -31 29 -138 29 -62 0 -116 -5 -128
-12z"/>
<path d="M3869 2531 c-31 -31 -36 -55 -18 -94 17 -38 50 -47 168 -47 104 0
109 1 135 26 28 29 35 77 13 105 -24 31 -56 39 -162 39 -104 0 -107 -1 -136
-29z"/>
<path d="M971 2194 c-40 -33 -43 -83 -6 -119 23 -24 30 -25 139 -25 63 0 122
3 131 6 19 8 45 55 45 84 0 12 -13 35 -29 51 -29 29 -31 29 -139 29 -104 0
-112 -1 -141 -26z"/>
<path d="M3869 2191 c-16 -16 -29 -39 -29 -51 0 -29 26 -76 45 -84 9 -3 68 -6
131 -6 109 0 116 1 139 25 35 34 33 78 -4 116 -29 29 -31 29 -141 29 -110 0
-112 0 -141 -29z"/>
<path d="M2165 2117 c-40 -19 -85 -65 -101 -104 -18 -41 -21 -1074 -3 -1120
14 -38 56 -81 103 -105 30 -15 53 -19 96 -16 52 4 76 16 366 193 170 104 366
224 436 267 153 95 173 120 173 220 0 114 4 111 -489 411 -424 258 -430 261
-490 264 -37 2 -73 -2 -91 -10z m503 -407 c244 -149 402 -251 402 -260 -1 -18
-794 -504 -824 -504 -21 -1 -21 2 -24 494 -1 272 0 501 3 508 3 7 13 12 24 10
10 -2 199 -113 419 -248z"/>
<path d="M965 1765 c-35 -34 -33 -78 4 -116 29 -29 31 -29 141 -29 110 0 112
0 141 29 16 16 29 39 29 51 0 29 -26 76 -45 84 -9 3 -68 6 -131 6 -109 0 -116
-1 -139 -25z"/>
<path d="M3882 1783 c-17 -6 -42 -57 -42 -83 0 -12 13 -35 29 -51 29 -29 31
-29 141 -29 110 0 112 0 141 29 37 38 39 82 4 116 -23 24 -30 25 -142 24 -65
0 -124 -3 -131 -6z"/>
<path d="M1003 1363 c-30 -6 -63 -49 -63 -84 0 -15 11 -40 24 -56 23 -26 28
-28 127 -31 85 -3 110 0 139 15 41 21 58 60 44 101 -15 44 -65 62 -164 61 -47
-1 -95 -4 -107 -6z"/>
<path d="M3890 1353 c-41 -21 -58 -60 -44 -100 16 -49 64 -65 183 -61 99 3
104 5 127 31 13 16 24 41 24 57 0 16 -11 41 -24 57 -23 26 -28 28 -127 31 -85
3 -110 0 -139 -15z"/>
<path d="M971 914 c-40 -33 -43 -83 -6 -119 23 -24 30 -25 139 -25 63 0 122 3
131 6 19 8 45 55 45 84 0 12 -13 35 -29 51 -29 29 -31 29 -139 29 -104 0 -112
-1 -141 -26z"/>
<path d="M3869 911 c-16 -16 -29 -39 -29 -51 0 -29 26 -76 45 -84 9 -3 68 -6
131 -6 109 0 116 1 139 25 35 34 33 78 -4 116 -29 29 -31 29 -141 29 -110 0
-112 0 -141 -29z"/>
<path d="M965 485 c-35 -34 -33 -78 4 -116 29 -29 31 -29 141 -29 110 0 112 0
141 29 16 16 29 39 29 51 0 29 -26 76 -45 84 -9 3 -68 6 -131 6 -109 0 -116
-1 -139 -25z"/>
<path d="M3882 503 c-17 -6 -42 -57 -42 -83 0 -12 13 -35 29 -51 29 -29 31
-29 141 -29 110 0 112 0 141 29 37 38 39 82 4 116 -23 24 -30 25 -142 24 -65
0 -124 -3 -131 -6z"/>
</g>
</svg>
