<?xml version="1.0" standalone="no"?>
<!DOCTYPE svg PUBLIC "-//W3C//DTD SVG 20010904//EN"
 "http://www.w3.org/TR/2001/REC-SVG-20010904/DTD/svg10.dtd">
<svg version="1.0" xmlns="http://www.w3.org/2000/svg"
 width="50.000000pt" height="50.000000pt" viewBox="0 0 50.000000 50.000000"
 preserveAspectRatio="xMidYMid meet">

<g transform="translate(0.000000,50.000000) scale(0.100000,-0.100000)"
fill="current" stroke="none">
<path d="M127 372 c-59 -59 -107 -112 -107 -117 0 -13 222 -235 235 -235 6 0
59 48 118 108 l107 107 0 81 c0 83 -9 104 -42 104 -11 0 -18 7 -18 18 0 33
-21 42 -105 42 l-80 0 -108 -108z m273 69 c0 -16 -7 -19 -50 -18 l-50 2 -108
-108 -107 -107 -23 22 -22 23 102 102 103 103 77 0 c70 0 78 -2 78 -19z m60
-118 l0 -78 -102 -102 -103 -103 -77 77 -78 78 102 102 103 103 77 0 78 0 0
-77z"/>
<path d="M374 356 c-10 -26 4 -48 28 -44 33 4 33 52 0 56 -13 2 -25 -3 -28
-12z m36 -16 c0 -5 -4 -10 -10 -10 -5 0 -10 5 -10 10 0 6 5 10 10 10 6 0 10
-4 10 -10z"/>
</g>
</svg>
