<?xml version="1.0" standalone="no"?>
<!DOCTYPE svg PUBLIC "-//W3C//DTD SVG 20010904//EN"
 "http://www.w3.org/TR/2001/REC-SVG-20010904/DTD/svg10.dtd">
<svg version="1.0" xmlns="http://www.w3.org/2000/svg"
 width="50.000000pt" height="50.000000pt" viewBox="0 0 50.000000 50.000000"
 preserveAspectRatio="xMidYMid meet">

<g transform="translate(0.000000,50.000000) scale(0.100000,-0.100000)"
fill="current" stroke="none">
<path d="M71 419 c-35 -52 -41 -69 -41 -114 0 -75 16 -87 116 -83 l79 3 9 37
c6 24 6 52 0 76 -9 36 -11 37 -57 40 -44 3 -47 5 -41 25 13 39 10 71 -7 75
-11 2 -31 -18 -58 -59z m49 -3 c-15 -47 -8 -56 46 -56 47 0 47 0 47 -60 0 -62
2 -60 -71 -60 -40 0 -73 5 -80 12 -7 7 -12 32 -12 57 0 35 8 56 37 98 41 59
51 62 33 9z"/>
<path d="M270 254 c-6 -14 -10 -38 -10 -54 0 -16 4 -40 10 -54 8 -23 15 -26
55 -26 44 0 46 -1 39 -22 -13 -40 -10 -72 7 -76 11 -2 31 18 58 59 35 52 41
69 41 114 0 73 -16 85 -114 85 -73 0 -77 -1 -86 -26z m168 -6 c7 -7 12 -32 12
-57 0 -35 -8 -56 -37 -98 -41 -59 -51 -62 -33 -9 15 47 8 56 -46 56 -47 0 -47
0 -47 60 0 62 -2 60 71 60 40 0 73 -5 80 -12z"/>
</g>
</svg>
