<?xml version="1.0" standalone="no"?>
<!DOCTYPE svg PUBLIC "-//W3C//DTD SVG 20010904//EN"
 "http://www.w3.org/TR/2001/REC-SVG-20010904/DTD/svg10.dtd">
<svg version="1.0" xmlns="http://www.w3.org/2000/svg"
 width="48.000000pt" height="48.000000pt" viewBox="0 0 48.000000 48.000000"
 preserveAspectRatio="xMidYMid meet">

<g transform="translate(0.000000,48.000000) scale(0.100000,-0.100000)"
fill="current" stroke="none">
<path d="M34 437 c-2 -7 -3 -100 -2 -207 l3 -195 205 0 205 0 3 98 c2 62 -1
97 -8 97 -6 0 -10 -35 -10 -90 l0 -90 -190 0 -190 0 0 190 0 190 100 0 c60 0
100 4 100 10 0 16 -209 13 -216 -3z"/>
<path d="M249 363 l-89 -87 0 -63 0 -63 53 0 52 0 93 93 c50 51 92 97 92 103
0 12 -92 104 -104 104 -5 0 -48 -39 -97 -87z m156 18 l29 -31 -22 -22 -22 -23
-42 42 c-41 41 -41 43 -24 62 21 24 36 18 81 -28z m-70 -51 l39 -40 -59 -60
c-52 -52 -64 -60 -97 -60 l-38 0 0 47 c0 44 4 52 52 100 29 29 55 53 58 53 3
0 24 -18 45 -40z"/>
</g>
</svg>
