<?xml version="1.0" standalone="no"?>
<!DOCTYPE svg PUBLIC "-//W3C//DTD SVG 20010904//EN"
 "http://www.w3.org/TR/2001/REC-SVG-20010904/DTD/svg10.dtd">
<svg version="1.0" xmlns="http://www.w3.org/2000/svg"
 width="512.000000pt" height="512.000000pt" viewBox="0 0 512.000000 512.000000"
 preserveAspectRatio="xMidYMid meet">

<g transform="translate(0.000000,512.000000) scale(0.100000,-0.100000)"
fill="current" stroke="none">
<path d="M2397 5096 c-32 -13 -75 -36 -95 -50 -21 -14 -526 -515 -1124 -1113
-876 -878 -1091 -1098 -1112 -1140 -96 -194 -64 -406 83 -554 92 -91 209 -139
343 -139 l68 0 0 -800 c0 -541 4 -816 11 -852 38 -182 185 -347 367 -410 66
-23 71 -23 554 -23 476 0 487 0 514 21 15 11 37 33 48 48 21 27 21 40 26 695
l5 668 30 49 c38 61 115 110 189 119 28 4 168 5 311 3 l260 -3 53 -29 c50 -28
82 -61 113 -116 11 -21 15 -144 19 -692 5 -654 5 -667 26 -694 11 -15 33 -37
48 -48 27 -21 38 -21 514 -21 483 0 488 0 554 23 182 63 329 228 367 410 7 36
11 311 11 852 l0 800 68 0 c188 0 352 100 433 265 34 69 34 71 34 205 0 228
115 93 -1169 1376 -1276 1277 -1148 1167 -1366 1172 -113 2 -130 0 -183 -22z
m210 -272 c-3 -3 -12 -4 -19 -1 -8 3 -5 6 6 6 11 1 17 -2 13 -5z m-147 -37 c0
-1 -476 -477 -1057 -1057 l-1058 -1055 1055 1058 c580 581 1056 1057 1057
1057 2 0 3 -1 3 -3z m1280 -1052 c580 -580 1053 -1055 1050 -1055 -3 0 -480
475 -1060 1055 -580 580 -1053 1055 -1050 1055 3 0 480 -475 1060 -1055z
m1087 -1147 c-3 -8 -6 -5 -6 6 -1 11 2 17 5 13 3 -3 4 -12 1 -19z m0 -50 c-3
-8 -6 -5 -6 6 -1 11 2 17 5 13 3 -3 4 -12 1 -19z m-4007 -183 c13 -14 21 -25
18 -25 -2 0 -15 11 -28 25 -13 14 -21 25 -18 25 2 0 15 -11 28 -25z m3530 22
c0 -2 -12 -14 -27 -28 l-28 -24 24 28 c23 25 31 32 31 24z m-2057 -464 c-7 -2
-21 -2 -30 0 -10 3 -4 5 12 5 17 0 24 -2 18 -5z m590 0 c-7 -2 -21 -2 -30 0
-10 3 -4 5 12 5 17 0 24 -2 18 -5z m-923 -136 c0 -2 -12 -14 -27 -28 l-28 -24
24 28 c23 25 31 32 31 24z m1245 -17 c10 -11 16 -20 13 -20 -3 0 -13 9 -23 20
-10 11 -16 20 -13 20 3 0 13 -9 23 -20z m-1305 -54 c0 -2 -8 -10 -17 -17 -16
-13 -17 -12 -4 4 13 16 21 21 21 13z m-113 -248 c-3 -8 -6 -5 -6 6 -1 11 2 17
5 13 3 -3 4 -12 1 -19z m1570 0 c-3 -8 -6 -5 -6 6 -1 11 2 17 5 13 3 -3 4 -12
1 -19z m-1580 -875 c-1 -153 -2 -28 -2 277 0 305 1 430 2 278 2 -153 2 -403 0
-555z m1590 -6 c-1 -150 -2 -24 -2 278 0 303 1 425 2 272 2 -153 2 -401 0
-550z m-2500 -69 c-3 -8 -6 -5 -6 6 -1 11 2 17 5 13 3 -3 4 -12 1 -19z m73
-123 c13 -14 21 -25 18 -25 -2 0 -15 11 -28 25 -13 14 -21 25 -18 25 2 0 15
-11 28 -25z m3290 22 c0 -2 -12 -14 -27 -28 l-28 -24 24 28 c23 25 31 32 31
24z m-3143 -93 c-3 -3 -12 -4 -19 -1 -8 3 -5 6 6 6 11 1 17 -2 13 -5z m2990 0
c-3 -3 -12 -4 -19 -1 -8 3 -5 6 6 6 11 1 17 -2 13 -5z"/>
</g>
</svg>
