<?xml version="1.0" standalone="no"?>
<!DOCTYPE svg PUBLIC "-//W3C//DTD SVG 20010904//EN"
 "http://www.w3.org/TR/2001/REC-SVG-20010904/DTD/svg10.dtd">
<svg version="1.0" xmlns="http://www.w3.org/2000/svg"
 width="512.000000pt" height="512.000000pt" viewBox="0 0 512.000000 512.000000"
 preserveAspectRatio="xMidYMid meet">

<g transform="translate(0.000000,512.000000) scale(0.100000,-0.100000)"
fill="current" stroke="none">
<path d="M325 4551 c-90 -22 -172 -90 -215 -176 l-25 -50 0 -1731 0 -1730 37
-76 c45 -91 103 -147 196 -191 l67 -32 2176 0 2175 0 76 37 c91 45 147 103
191 196 l32 67 0 1330 0 1330 -34 63 c-38 69 -80 110 -151 144 -36 17 -68 22
-167 26 l-121 4 -7 47 c-9 61 -60 156 -104 192 -19 16 -56 39 -81 51 l-45 23
-1061 3 -1061 2 -126 189 c-136 203 -172 240 -262 272 -52 18 -87 19 -757 18
-387 -1 -716 -4 -733 -8z m1472 -176 c15 -12 90 -113 165 -224 75 -112 142
-209 148 -215 8 -8 327 -12 1100 -16 1080 -5 1089 -5 1116 -26 39 -28 63 -63
70 -101 l6 -33 -1723 -2 -1724 -3 -50 -25 c-64 -31 -124 -91 -155 -155 l-25
-50 -5 -1315 c-6 -1485 2 -1351 -86 -1429 -66 -58 -142 -74 -228 -49 -55 16
-138 99 -154 154 -16 55 -18 3368 -1 3411 14 37 47 72 84 89 24 11 162 13 732
11 690 -2 702 -2 730 -22z m3009 -801 c15 -11 37 -33 48 -48 21 -27 21 -32 24
-1309 2 -990 0 -1292 -10 -1327 -16 -58 -96 -141 -154 -158 -32 -9 -486 -12
-1976 -12 l-1934 0 35 72 36 72 5 1315 c4 971 8 1321 17 1336 16 29 54 62 83
74 16 6 672 9 1912 8 l1887 -2 27 -21z"/>
<path d="M2700 3265 c-276 -44 -542 -204 -711 -427 -496 -659 -143 -1598 666
-1774 176 -38 394 -26 574 33 173 56 369 184 484 316 396 455 378 1116 -43
1537 -256 256 -612 371 -970 315z m415 -175 c183 -49 305 -120 440 -255 136
-137 206 -259 256 -445 30 -110 33 -337 6 -444 -47 -186 -125 -324 -262 -461
-179 -178 -373 -267 -620 -281 -404 -24 -786 216 -943 591 -50 122 -67 212
-66 365 0 160 13 229 65 359 89 223 289 428 506 520 148 63 249 81 418 76 81
-2 146 -11 200 -25z"/>
<path d="M2545 2695 l-25 -24 0 -511 0 -511 25 -24 c14 -15 36 -25 52 -25 19
0 169 85 448 253 343 206 422 257 429 280 22 62 19 64 -429 334 -275 165 -430
252 -448 253 -17 0 -38 -10 -52 -25z m694 -535 c0 -3 -125 -80 -279 -172
l-280 -167 0 339 0 339 280 -167 c154 -92 279 -169 279 -172z"/>
</g>
</svg>
