<?xml version="1.0" standalone="no"?>
<!DOCTYPE svg PUBLIC "-//W3C//DTD SVG 20010904//EN"
 "http://www.w3.org/TR/2001/REC-SVG-20010904/DTD/svg10.dtd">
<svg version="1.0" xmlns="http://www.w3.org/2000/svg"
 width="512.000000pt" height="512.000000pt" viewBox="0 0 512.000000 512.000000"
 preserveAspectRatio="xMidYMid meet">

<g transform="translate(0.000000,512.000000) scale(0.100000,-0.100000)"
fill="current" stroke="none">
<path d="M413 5106 c-195 -47 -362 -219 -402 -414 -16 -75 -16 -4189 0 -4264
41 -200 217 -376 417 -417 74 -15 2270 -15 2344 0 200 41 376 217 417 417 7
31 11 173 11 347 l0 295 -104 0 -104 0 -4 -303 c-3 -301 -3 -302 -29 -357 -37
-80 -81 -125 -157 -162 l-67 -33 -1135 0 -1135 0 -67 33 c-76 37 -120 82 -157
162 l-26 55 0 2095 0 2095 26 55 c37 80 81 125 157 162 l67 33 1135 0 1135 0
55 -26 c80 -37 125 -81 162 -157 l33 -67 3 -302 4 -303 104 0 104 0 0 295 c0
174 -4 316 -11 347 -41 200 -217 376 -417 417 -81 17 -2289 14 -2359 -3z"/>
<path d="M430 4585 l0 -105 105 0 105 0 0 105 0 105 -105 0 -105 0 0 -105z"/>
<path d="M850 4585 l0 -105 110 0 110 0 0 105 0 105 -110 0 -110 0 0 -105z"/>
<path d="M430 4160 l0 -110 105 0 105 0 0 110 0 110 -105 0 -105 0 0 -110z"/>
<path d="M2143 3821 c-72 -24 -127 -65 -163 -120 -63 -94 -61 -48 -58 -1162
l3 -1014 26 -56 c33 -71 87 -125 158 -158 l56 -26 1355 0 1355 0 56 26 c71 33
125 87 158 158 l26 56 0 1035 0 1035 -26 56 c-33 71 -87 125 -158 158 l-56 26
-1340 2 c-1269 2 -1343 2 -1392 -16z m267 -406 c-194 -194 -218 -215 -248
-215 l-34 0 4 179 3 180 29 30 c16 16 38 32 50 34 11 2 109 5 216 6 l195 1
-215 -215z m640 0 l-215 -215 -170 0 -170 0 215 215 216 215 169 0 170 0 -215
-215z m640 0 l-215 -215 -170 0 -170 0 215 215 216 215 169 0 170 0 -215 -215z
m640 0 l-215 -215 -170 0 -170 0 215 215 216 215 169 0 170 0 -215 -215z m546
174 l29 -30 3 -180 4 -179 -249 0 -248 0 210 210 c115 116 212 210 216 210 3
0 18 -14 35 -31z m29 -1316 l0 -713 -33 -32 -32 -33 -1320 0 -1320 0 -32 33
-33 32 -3 702 c-1 386 0 708 2 715 4 11 265 13 1388 11 l1383 -3 0 -712z"/>
<path d="M3174 2663 c-12 -2 -34 -18 -50 -34 l-29 -30 0 -359 0 -360 32 -31
c55 -56 68 -52 449 139 358 179 367 186 367 252 0 66 -9 73 -363 249 -334 167
-366 181 -406 174z m281 -350 c74 -37 135 -70 135 -73 0 -5 -265 -140 -275
-140 -3 0 -5 63 -5 140 0 77 2 140 5 140 3 0 66 -30 140 -67z"/>
<path d="M850 2665 l0 -105 430 0 430 0 0 105 0 105 -430 0 -430 0 0 -105z"/>
<path d="M640 2135 l0 -105 425 0 425 0 0 105 0 105 -425 0 -425 0 0 -105z"/>
<path d="M854 1697 c-2 -7 -3 -56 -2 -108 l3 -94 425 0 425 0 0 105 0 105
-423 3 c-345 2 -423 0 -428 -11z"/>
<path d="M1280 535 l0 -105 320 0 320 0 0 105 0 105 -320 0 -320 0 0 -105z"/>
</g>
</svg>
