<?xml version="1.0" standalone="no"?>
<!DOCTYPE svg PUBLIC "-//W3C//DTD SVG 20010904//EN"
 "http://www.w3.org/TR/2001/REC-SVG-20010904/DTD/svg10.dtd">
<svg version="1.0" xmlns="http://www.w3.org/2000/svg"
 width="512.000000pt" height="512.000000pt" viewBox="0 0 512.000000 512.000000"
 preserveAspectRatio="xMidYMid meet">

<g transform="translate(0.000000,512.000000) scale(0.100000,-0.100000)"
fill="current" stroke="none">
<path d="M190 5111 c-69 -22 -130 -73 -166 -141 -18 -34 -19 -102 -19 -1950
l0 -1915 29 -58 c36 -71 99 -130 174 -165 53 -24 69 -27 225 -30 l167 -4 0
-327 0 -327 26 -52 c29 -58 82 -105 144 -127 63 -22 3516 -23 3579 0 59 20
108 61 139 114 l27 46 3 336 3 337 167 4 c155 3 171 6 224 30 75 35 138 94
174 165 l29 58 0 1665 0 1665 -33 67 c-36 73 -86 123 -161 160 l-46 23 -1557
5 -1556 5 -25 23 c-21 20 -25 34 -29 115 -3 51 -12 108 -20 128 -21 49 -74
106 -122 132 -41 22 -43 22 -696 24 -360 1 -666 -2 -680 -6z m1316 -184 c25
-22 27 -31 33 -128 4 -57 13 -115 21 -129 28 -53 62 -88 112 -116 l53 -29
1555 -5 c1536 -5 1555 -5 1589 -25 19 -11 45 -40 58 -64 22 -43 23 -52 23
-297 l0 -252 -52 20 c-37 14 -88 22 -169 25 l-117 6 -4 116 c-5 131 -19 169
-85 233 -75 73 79 68 -1961 68 -1377 0 -1844 -3 -1874 -12 -50 -15 -123 -79
-150 -132 -17 -33 -22 -64 -26 -157 l-4 -116 -117 -6 c-81 -3 -132 -11 -168
-25 l-53 -20 0 505 0 505 29 29 29 29 626 0 625 0 27 -23z m2901 -771 c27 -23
28 -29 31 -125 l4 -101 -1882 0 -1882 0 4 101 c3 96 4 102 31 125 l28 24 1819
0 1819 0 28 -24z m-4167 -439 c0 -2 -10 -12 -22 -23 l-23 -19 19 23 c18 21 26
27 26 19z m4665 -17 c10 -11 16 -20 13 -20 -3 0 -13 9 -23 20 -10 11 -16 20
-13 20 3 0 13 -9 23 -20z m-4728 -102 c-3 -8 -6 -5 -6 6 -1 11 2 17 5 13 3 -3
4 -12 1 -19z m4770 0 c-3 -8 -6 -5 -6 6 -1 11 2 17 5 13 3 -3 4 -12 1 -19z
m-1524 -695 c-475 -2 -1251 -2 -1725 0 -475 1 -87 2 862 2 949 0 1337 -1 863
-2z m-1973 -190 c0 -10 -7 -40 -15 -67 -13 -42 -15 -217 -15 -1263 l0 -1213
-291 0 c-295 0 -318 3 -346 39 -10 12 -12 294 -13 1244 l0 1228 25 24 24 25
316 0 c293 0 315 -1 315 -17z m177 -1721 c-1 -317 -2 -55 -2 583 0 638 1 898
2 577 2 -321 2 -843 0 -1160z m1870 0 c-1 -317 -2 -55 -2 583 0 638 1 898 2
577 2 -321 2 -843 0 -1160z m828 1713 l25 -24 0 -1228 c-1 -950 -3 -1232 -13
-1244 -28 -37 -50 -39 -366 -39 l-311 0 0 101 c0 95 -1 101 -17 88 -11 -9 -9
-3 5 15 l22 29 0 1163 0 1164 315 0 316 0 24 -25z m-3730 -1673 c-3 -9 -39
-11 -142 -10 l-138 2 138 3 137 4 2 827 3 827 3 -820 c1 -451 0 -826 -3 -833z
m4070 -5 l135 -3 -137 1 -138 0 0 823 0 822 2 -820 3 -819 135 -4z m-2397
1106 c-10 -2 -26 -2 -35 0 -10 3 -2 5 17 5 19 0 27 -2 18 -5z m-221 -941 c-1
-141 -2 -25 -2 258 0 283 1 399 2 257 2 -141 2 -373 0 -515z m621 518 c244
-149 402 -251 402 -260 -1 -18 -794 -504 -824 -504 -21 -1 -21 2 -24 494 -1
272 0 501 3 508 3 7 13 12 24 10 10 -2 199 -113 419 -248z m579 -267 c-3 -10
-5 -4 -5 12 0 17 2 24 5 18 2 -7 2 -21 0 -30z m-3070 -275 c-3 -8 -6 -5 -6 6
-1 11 2 17 5 13 3 -3 4 -12 1 -19z m4770 0 c-3 -8 -6 -5 -6 6 -1 11 2 17 5 13
3 -3 4 -12 1 -19z m-4717 -93 c13 -14 21 -25 18 -25 -2 0 -15 11 -28 25 -13
14 -21 25 -18 25 2 0 15 -11 28 -25z m4690 22 c0 -2 -12 -14 -27 -28 l-28 -24
24 28 c23 25 31 32 31 24z m-2810 -272 c13 -14 21 -25 18 -25 -2 0 -15 11 -28
25 -13 14 -21 25 -18 25 2 0 15 -11 28 -25z m147 -61 c-3 -3 -12 -4 -19 -1 -8
3 -5 6 6 6 11 1 17 -2 13 -5z m-776 -401 c13 -16 12 -17 -3 -4 -10 7 -18 15
-18 17 0 8 8 3 21 -13z m129 13 c0 -2 -8 -10 -17 -17 -16 -13 -17 -12 -4 4 13
16 21 21 21 13z m1921 -13 c13 -16 12 -17 -3 -4 -17 13 -22 21 -14 21 2 0 10
-8 17 -17z"/>
<path d="M985 2548 c-52 -30 -61 -94 -19 -133 25 -23 34 -25 135 -25 118 0
151 9 168 47 18 39 13 63 -18 94 -29 29 -31 29 -138 29 -62 0 -116 -5 -128
-12z"/>
<path d="M971 2194 c-40 -33 -43 -83 -6 -119 23 -24 30 -25 139 -25 63 0 122
3 131 6 19 8 45 55 45 84 0 12 -13 35 -29 51 -29 29 -31 29 -139 29 -104 0
-112 -1 -141 -26z"/>
<path d="M965 1765 c-35 -34 -33 -78 4 -116 29 -29 31 -29 141 -29 110 0 112
0 141 29 16 16 29 39 29 51 0 29 -26 76 -45 84 -9 3 -68 6 -131 6 -109 0 -116
-1 -139 -25z"/>
<path d="M1003 1363 c-30 -6 -63 -49 -63 -84 0 -15 11 -40 24 -56 23 -26 28
-28 127 -31 85 -3 110 0 139 15 41 21 58 60 44 101 -15 44 -65 62 -164 61 -47
-1 -95 -4 -107 -6z"/>
<path d="M971 914 c-40 -33 -43 -83 -6 -119 23 -24 30 -25 139 -25 63 0 122 3
131 6 19 8 45 55 45 84 0 12 -13 35 -29 51 -29 29 -31 29 -139 29 -104 0 -112
-1 -141 -26z"/>
<path d="M965 485 c-35 -34 -33 -78 4 -116 29 -29 31 -29 141 -29 110 0 112 0
141 29 16 16 29 39 29 51 0 29 -26 76 -45 84 -9 3 -68 6 -131 6 -109 0 -116
-1 -139 -25z"/>
<path d="M3869 2531 c-31 -31 -36 -55 -18 -94 17 -38 50 -47 168 -47 104 0
109 1 135 26 28 29 35 77 13 105 -24 31 -56 39 -162 39 -104 0 -107 -1 -136
-29z"/>
<path d="M3869 2191 c-16 -16 -29 -39 -29 -51 0 -29 26 -76 45 -84 9 -3 68 -6
131 -6 109 0 116 1 139 25 35 34 33 78 -4 116 -29 29 -31 29 -141 29 -110 0
-112 0 -141 -29z"/>
<path d="M3882 1783 c-17 -6 -42 -57 -42 -83 0 -12 13 -35 29 -51 29 -29 31
-29 141 -29 110 0 112 0 141 29 37 38 39 82 4 116 -23 24 -30 25 -142 24 -65
0 -124 -3 -131 -6z"/>
<path d="M3890 1353 c-41 -21 -58 -60 -44 -100 16 -49 64 -65 183 -61 99 3
104 5 127 31 13 16 24 41 24 57 0 16 -11 41 -24 57 -23 26 -28 28 -127 31 -85
3 -110 0 -139 -15z"/>
<path d="M3869 911 c-16 -16 -29 -39 -29 -51 0 -29 26 -76 45 -84 9 -3 68 -6
131 -6 109 0 116 1 139 25 35 34 33 78 -4 116 -29 29 -31 29 -141 29 -110 0
-112 0 -141 -29z"/>
<path d="M3882 503 c-17 -6 -42 -57 -42 -83 0 -12 13 -35 29 -51 29 -29 31
-29 141 -29 110 0 112 0 141 29 37 38 39 82 4 116 -23 24 -30 25 -142 24 -65
0 -124 -3 -131 -6z"/>
</g>
</svg>
