<?xml version="1.0" encoding="utf-8"?>
<svg version="1.0" width="64.000000pt" height="64.000000pt" viewBox="0 7.02 57.389 53.777" preserveAspectRatio="xMidYMid meet" xmlns="http://www.w3.org/2000/svg">
  <g transform="translate(0.000000,64.000000) scale(0.100000,-0.100000)" fill="current" stroke="none">
    <path d="M296 544 c-3 -9 -6 -25 -6 -37 0 -28 -42 -118 -62 -134 -8 -7 -29 -16 -46 -19 -29 -6 -32 -4 -32 20 0 26 -1 26 -70 26 l-70 0 0 -170 0 -170 70 0 c65 0 70 2 70 21 0 19 4 21 39 15 21 -3 58 -15 82 -26 35 -15 66 -20 150 -20 112 0 134 8 128 47 -2 10 2 28 9 40 9 17 10 28 2 43 -7 13 -8 26 -1 37 6 11 6 24 0 35 -6 12 -6 25 0 37 7 13 6 24 -4 37 -11 16 -30 20 -107 24 -106 6 -95 -8 -82 113 6 47 4 61 -11 77 -22 24 -51 26 -59 4z m60 -40 c4 -14 2 -43 -5 -64 -15 -49 -14 -85 2 -98 7 -6 53 -12 103 -14 81 -3 89 -5 89 -23 0 -16 -8 -21 -37 -23 -48 -4 -50 -22 -3 -22 66 0 52 -58 -14 -61 -17 -1 -12 -4 14 -8 28 -4 41 -11 43 -25 5 -25 -14 -35 -68 -37 l-45 -2 45 -6 c40 -5 45 -9 45 -31 l0 -25 -110 0 c-95 1 -116 4 -150 23 -22 12 -57 22 -77 22 l-38 0 0 115 0 115 29 0 c15 0 40 9 53 20 28 21 62 94 73 152 6 33 9 36 26 27 10 -5 22 -21 25 -35z m-226 -279 l0 -155 -55 0 -55 0 0 155 0 155 55 0 55 0 0 -155z"/>
  </g>
</svg>