<?xml version="1.0" standalone="no"?>
<!DOCTYPE svg PUBLIC "-//W3C//DTD SVG 20010904//EN"
 "http://www.w3.org/TR/2001/REC-SVG-20010904/DTD/svg10.dtd">
<svg version="1.0" xmlns="http://www.w3.org/2000/svg"
 width="64.000000pt" height="64.000000pt" viewBox="0 0 64.000000 64.000000"
 preserveAspectRatio="xMidYMid meet">

<g transform="translate(0.000000,64.000000) scale(0.100000,-0.100000)"
fill="current" stroke="none">
<path d="M251 556 c-58 -59 -70 -86 -37 -86 6 0 28 16 47 36 l34 35 5 -183 c4
-154 7 -183 20 -183 13 0 16 29 20 183 l5 183 34 -35 c36 -37 55 -44 67 -25 6
10 -111 139 -126 139 -3 0 -34 -29 -69 -64z"/>
<path d="M65 406 c-25 -25 -25 -28 -25 -181 0 -152 1 -156 25 -180 l24 -25
231 0 231 0 24 25 c24 24 25 28 25 180 0 153 0 156 -25 181 -22 22 -32 25 -93
22 -59 -3 -67 -5 -67 -23 0 -18 8 -20 68 -23 l68 -3 -3 -157 -3 -157 -225 0
-225 0 -3 157 -3 157 68 3 c60 3 68 5 68 23 0 18 -8 20 -67 23 -61 3 -71 0
-93 -22z"/>
</g>
</svg>
