<?xml version="1.0" standalone="no"?>
<!DOCTYPE svg PUBLIC "-//W3C//DTD SVG 20010904//EN"
 "http://www.w3.org/TR/2001/REC-SVG-20010904/DTD/svg10.dtd">
<svg version="1.0" xmlns="http://www.w3.org/2000/svg"
 width="48.000000pt" height="48.000000pt" viewBox="0 0 48.000000 48.000000"
 preserveAspectRatio="xMidYMid meet">

<g transform="translate(0.000000,48.000000) scale(0.100000,-0.100000)"
fill="current" stroke="none">
<path d="M227 374 c-4 -4 -7 -17 -7 -29 0 -17 -7 -24 -32 -28 -18 -3 -40 -8
-49 -12 -10 -4 -19 2 -27 20 -6 14 -16 25 -22 25 -14 0 -13 -33 3 -49 10 -10
5 -18 -26 -43 -37 -30 -49 -58 -24 -58 8 0 24 12 38 26 82 88 236 88 318 0 14
-14 30 -26 38 -26 25 0 13 28 -24 58 -31 25 -36 33 -25 43 15 16 16 49 2 49
-6 0 -16 -11 -22 -25 -8 -18 -17 -24 -27 -20 -9 4 -30 9 -48 12 -25 4 -33 11
-35 31 -3 26 -18 38 -31 26z"/>
<path d="M182 237 c-50 -53 -13 -137 59 -137 47 0 79 34 79 81 0 71 -90 107
-138 56z"/>
</g>
</svg>
